<svg xmlns="http://www.w3.org/2000/svg" width="22.5" height="16.875" viewBox="0 0 22.5 16.875"><defs><style>.a{fill:#fff;opacity:0.8;}</style></defs><path class="a" d="M20.391,59.882H2.109A2.112,2.112,0,0,0,0,61.991V74.648a2.112,2.112,0,0,0,2.109,2.109H20.391A2.112,2.112,0,0,0,22.5,74.648V61.991A2.112,2.112,0,0,0,20.391,59.882Zm0,1.406a.7.7,0,0,1,.269.054L11.25,69.5,1.84,61.343a.7.7,0,0,1,.269-.054Zm0,14.062H2.109a.7.7,0,0,1-.7-.7V62.828l9.383,8.132a.7.7,0,0,0,.921,0l9.383-8.132V74.648A.7.7,0,0,1,20.391,75.351Z" transform="translate(0 -59.882)"/></svg>