<svg xmlns="http://www.w3.org/2000/svg" width="18.729" height="24.972" viewBox="0 0 18.729 24.972"><defs><style>.a{fill:#fff;}</style></defs><path class="a" d="M214.185,281.088l-.328,2.951a.52.52,0,0,0,.517.578h2.081a.52.52,0,0,0,.517-.578l-.328-2.951a2.058,2.058,0,0,0,.851-1.674,2.081,2.081,0,0,0-4.162,0A2.058,2.058,0,0,0,214.185,281.088Zm1.229-2.714a1.037,1.037,0,0,1,.449,1.973.521.521,0,0,0-.291.526l.3,2.7h-.919l.3-2.7a.521.521,0,0,0-.291-.526,1.037,1.037,0,0,1,.449-1.973Z" transform="translate(-206.05 -263.807)"/><path class="a" d="M82.208,9.364H80.648V7.283a7.283,7.283,0,1,0-14.567,0V9.364H64.52a.52.52,0,0,0-.52.52V22.891a2.083,2.083,0,0,0,2.081,2.081H80.648a2.083,2.083,0,0,0,2.081-2.081V9.885A.52.52,0,0,0,82.208,9.364ZM67.121,7.283a6.243,6.243,0,1,1,12.486,0V9.364h-1.04V7.283a5.2,5.2,0,0,0-10.4,0V9.364h-1.04Zm10.4,0V9.364H69.2V7.283a4.162,4.162,0,0,1,8.324,0Zm4.162,15.607a1.042,1.042,0,0,1-1.04,1.04H66.081a1.042,1.042,0,0,1-1.04-1.04V10.4H81.688Z" transform="translate(-64)"/></svg>