<svg xmlns="http://www.w3.org/2000/svg" width="19.934" height="23.892" viewBox="0 0 19.934 23.892"><defs><style>.a{opacity:0.8;}.b{fill:#fff;}</style></defs><g class="a"><path class="b" d="M92.786,11.509a5.568,5.568,0,0,0,4.069-1.686,5.569,5.569,0,0,0,1.686-4.069,5.569,5.569,0,0,0-1.686-4.069,5.753,5.753,0,0,0-8.138,0,5.568,5.568,0,0,0-1.686,4.069,5.569,5.569,0,0,0,1.686,4.069A5.57,5.57,0,0,0,92.786,11.509ZM89.707,2.676a4.353,4.353,0,0,1,6.157,0,4.16,4.16,0,0,1,1.276,3.079,4.16,4.16,0,0,1-1.276,3.079,4.353,4.353,0,0,1-6.157,0,4.159,4.159,0,0,1-1.276-3.079A4.16,4.16,0,0,1,89.707,2.676Zm0,0" transform="translate(-82.97)"/><path class="b" d="M19.885,254.148a14.214,14.214,0,0,0-.194-1.51,11.894,11.894,0,0,0-.371-1.518A7.5,7.5,0,0,0,18.7,249.7a5.337,5.337,0,0,0-.941-1.226,4.149,4.149,0,0,0-1.352-.849,4.671,4.671,0,0,0-1.726-.312,1.751,1.751,0,0,0-.935.4c-.28.183-.608.394-.974.628a5.583,5.583,0,0,1-1.261.555,4.9,4.9,0,0,1-3.084,0,5.566,5.566,0,0,1-1.26-.555c-.363-.232-.691-.443-.975-.629a1.75,1.75,0,0,0-.935-.4,4.665,4.665,0,0,0-1.725.313,4.145,4.145,0,0,0-1.352.849,5.338,5.338,0,0,0-.941,1.226,7.512,7.512,0,0,0-.624,1.416,11.922,11.922,0,0,0-.371,1.518,14.117,14.117,0,0,0-.194,1.51c-.032.456-.048.931-.048,1.411a3.967,3.967,0,0,0,1.178,3,4.241,4.241,0,0,0,3.036,1.107h11.5a4.242,4.242,0,0,0,3.036-1.107,3.966,3.966,0,0,0,1.178-3C19.933,255.077,19.917,254.6,19.885,254.148Zm-2.1,3.4a2.856,2.856,0,0,1-2.071.722H4.215a2.856,2.856,0,0,1-2.071-.721,2.591,2.591,0,0,1-.744-1.987c0-.448.015-.89.044-1.314a12.733,12.733,0,0,1,.175-1.36,10.515,10.515,0,0,1,.326-1.338,6.115,6.115,0,0,1,.508-1.151,3.956,3.956,0,0,1,.691-.906,2.752,2.752,0,0,1,.9-.559,3.222,3.222,0,0,1,1.1-.213c.049.026.136.076.278.168.288.188.62.4.986.636a6.937,6.937,0,0,0,1.582.707,6.294,6.294,0,0,0,3.945,0,6.945,6.945,0,0,0,1.583-.708c.375-.24.7-.448.986-.635.141-.092.229-.142.278-.168a3.224,3.224,0,0,1,1.1.213,2.756,2.756,0,0,1,.9.559,3.946,3.946,0,0,1,.691.906,6.1,6.1,0,0,1,.508,1.151,10.49,10.49,0,0,1,.327,1.338,12.84,12.84,0,0,1,.175,1.36h0c.03.423.045.865.045,1.314A2.591,2.591,0,0,1,17.79,257.546Zm0,0" transform="translate(0 -235.775)"/></g></svg>